PathFileType	4	(X/Y/Z)	C:\Users\italobelli\Desktop\GitHub\PTbot_officialCBL\Personal_Results\FLX21_noisy2.trc
DataRate	CameraRate	NumFrames	NumMarkers	Units	OrigDataRate	OrigDataStartFrame	OrigNumFrames
107.000000	107.000000	17	9	m	107.000000	1	750
Frame#	Time		gu		centelbow		EpL		centpxt8		centijc7		ij		ts		aa		ai
			X1	Y1	Z1	X2	Y2	Z2	X3	Y3	Z3	X4	Y4	Z4	X5	Y5	Z5	X6	Y6	Z6	X7	Y7	Z7	X8	Y8	Z8	X9	Y9	Z9

1	0	-0.073895	-0.018035	0.16585	-0.1218	-0.25973	0.18484	-0.10534	-0.25675	0.2124	-0.046816	-0.15316	-0.008669	-0.046816	0.031938	-0.008669	0	0	0	-0.13335	0.032393	0.056511	-0.1001	0.019663	0.17034	-0.15513	-0.079012	0.055875
2	0.0093458	-0.073729	-0.018531	0.16598	-0.12133	-0.26105	0.185	-0.10481	-0.25804	0.21262	-0.046816	-0.15316	-0.008669	-0.046816	0.031938	-0.008669	0	0	0	-0.13338	0.032383	0.056525	-0.10007	0.019331	0.17037	-0.15542	-0.079033	0.055688
3	0.018692	-0.073562	-0.019026	0.16611	-0.12081	-0.26234	0.18517	-0.10422	-0.2593	0.21285	-0.046816	-0.15316	-0.008669	-0.046816	0.031938	-0.008669	0	0	0	-0.13341	0.032369	0.056541	-0.10003	0.019001	0.1704	-0.15571	-0.079057	0.055508
4	0.028037	-0.073397	-0.01952	0.16623	-0.12024	-0.2636	0.18535	-0.10359	-0.26052	0.21308	-0.046816	-0.15316	-0.008669	-0.046816	0.031938	-0.008669	0	0	0	-0.13344	0.032352	0.056557	-0.099994	0.018671	0.17042	-0.156	-0.079085	0.055334
5	0.037383	-0.073231	-0.020011	0.16635	-0.11961	-0.26483	0.18554	-0.1029	-0.26172	0.21331	-0.046816	-0.15316	-0.008669	-0.046816	0.031938	-0.008669	0	0	0	-0.13347	0.03233	0.056574	-0.099956	0.018344	0.17045	-0.15629	-0.079116	0.055167
6	0.046729	-0.073066	-0.020499	0.16647	-0.11893	-0.26603	0.18574	-0.10217	-0.26288	0.21355	-0.046816	-0.15316	-0.008669	-0.046816	0.031938	-0.008669	0	0	0	-0.13351	0.032306	0.056592	-0.099916	0.018018	0.17047	-0.15658	-0.079149	0.055007
7	0.056075	-0.072901	-0.020984	0.16658	-0.1182	-0.2672	0.18594	-0.10139	-0.26401	0.21379	-0.046816	-0.15316	-0.008669	-0.046816	0.031938	-0.008669	0	0	0	-0.13355	0.032277	0.05661	-0.099875	0.017696	0.17048	-0.15687	-0.079187	0.054854
8	0.065421	-0.072736	-0.021464	0.16669	-0.11743	-0.26834	0.18615	-0.10057	-0.2651	0.21403	-0.046816	-0.15316	-0.008669	-0.046816	0.031938	-0.008669	0	0	0	-0.1336	0.032245	0.05663	-0.099833	0.017376	0.1705	-0.15715	-0.079227	0.054708
9	0.074766	-0.072571	-0.021939	0.1668	-0.1166	-0.26945	0.18637	-0.099695	-0.26616	0.21428	-0.046816	-0.15316	-0.008669	-0.046816	0.031938	-0.008669	0	0	0	-0.13365	0.03221	0.05665	-0.09979	0.01706	0.17051	-0.15744	-0.07927	0.05457
10	0.084112	-0.072407	-0.022409	0.1669	-0.11573	-0.27053	0.1866	-0.098779	-0.26718	0.21453	-0.046816	-0.15316	-0.008669	-0.046816	0.031938	-0.008669	0	0	0	-0.1337	0.032171	0.056671	-0.099746	0.016748	0.17052	-0.15772	-0.079315	0.05444
11	0.093458	-0.072243	-0.022872	0.167	-0.11481	-0.27157	0.18683	-0.09782	-0.26816	0.21478	-0.046816	-0.15316	-0.008669	-0.046816	0.031938	-0.008669	0	0	0	-0.13375	0.032128	0.056693	-0.0997	0.016441	0.17053	-0.158	-0.079364	0.054317
12	0.1028	-0.072079	-0.023328	0.1671	-0.11385	-0.27258	0.18707	-0.096818	-0.26911	0.21504	-0.046816	-0.15316	-0.008669	-0.046816	0.031938	-0.008669	0	0	0	-0.13381	0.032083	0.056716	-0.099653	0.016139	0.17053	-0.15828	-0.079416	0.054202
13	0.11215	-0.071916	-0.023776	0.16719	-0.11284	-0.27355	0.18732	-0.095775	-0.27002	0.21529	-0.046816	-0.15316	-0.008669	-0.046816	0.031938	-0.008669	0	0	0	-0.13387	0.032033	0.056739	-0.099605	0.015842	0.17053	-0.15855	-0.07947	0.054096
14	0.1215	-0.071753	-0.024217	0.16728	-0.11178	-0.27448	0.18757	-0.094691	-0.27089	0.21556	-0.046816	-0.15316	-0.008669	-0.046816	0.031938	-0.008669	0	0	0	-0.13393	0.031981	0.056763	-0.099557	0.015551	0.17054	-0.15882	-0.079527	0.053997
15	0.13084	-0.07159	-0.024647	0.16737	-0.11069	-0.27538	0.18783	-0.093567	-0.27172	0.21582	-0.046816	-0.15316	-0.008669	-0.046816	0.031938	-0.008669	0	0	0	-0.13399	0.031926	0.056788	-0.099507	0.015266	0.17053	-0.15909	-0.079586	0.053908
16	0.14019	-0.071427	-0.025069	0.16745	-0.10955	-0.27624	0.1881	-0.092403	-0.27251	0.21609	-0.046816	-0.15316	-0.008669	-0.046816	0.031938	-0.008669	0	0	0	-0.13406	0.031867	0.056814	-0.099456	0.014988	0.17053	-0.15935	-0.079648	0.053827
17	0.14953	-0.071264	-0.025479	0.16752	-0.10837	-0.27707	0.18837	-0.091202	-0.27325	0.21636	-0.046816	-0.15316	-0.008669	-0.046816	0.031938	-0.008669	0	0	0	-0.13413	0.031805	0.05684	-0.099404	0.014718	0.17052	-0.1596	-0.079712	0.053755
